<?xml version="1.0" encoding="UTF-8" standalone="no"?>
<svg
   data-name="Layer 1"
   viewBox="0 0 128 160"
   x="0px"
   y="0px"
   version="1.1"
   id="svg3"
   sodipodi:docname="board.svg"
   inkscape:version="1.4 (e7c3feb1, 2024-10-09)"
   xmlns:inkscape="http://www.inkscape.org/namespaces/inkscape"
   xmlns:sodipodi="http://sodipodi.sourceforge.net/DTD/sodipodi-0.dtd"
   xmlns="http://www.w3.org/2000/svg"
   xmlns:svg="http://www.w3.org/2000/svg">
  <defs
     id="defs3" />
  <sodipodi:namedview
     id="namedview3"
     pagecolor="#ffffff"
     bordercolor="#000000"
     borderopacity="0.25"
     inkscape:showpageshadow="2"
     inkscape:pageopacity="0.0"
     inkscape:pagecheckerboard="0"
     inkscape:deskcolor="#d1d1d1"
     inkscape:zoom="2.9194396"
     inkscape:cx="35.794541"
     inkscape:cy="77.754649"
     inkscape:window-width="1472"
     inkscape:window-height="891"
     inkscape:window-x="0"
     inkscape:window-y="65"
     inkscape:window-maximized="0"
     inkscape:current-layer="svg3" />
  <title
     id="title1">ic_leaderboard_medal</title>
  <path
     d="M82.41,71.05,71.84,69.51l-4.73-9.58a3.47,3.47,0,0,0-6.22,0l-4.73,9.58L45.59,71.05A3.46,3.46,0,0,0,43.67,77l7.65,7.46L49.51,94.94a3.48,3.48,0,0,0,5,3.66l9.45-5,9.45,5a3.47,3.47,0,0,0,1.62.4,3.41,3.41,0,0,0,2-.67,3.46,3.46,0,0,0,1.38-3.39L76.68,84.42,84.33,77a3.46,3.46,0,0,0-1.92-5.91ZM73.13,82.29a2,2,0,0,0-.57,1.77l1.8,10.5-9.43-5a2,2,0,0,0-1.86,0l-9.43,5,1.8-10.5a2,2,0,0,0-.57-1.77l-7.63-7.44,10.54-1.53a2,2,0,0,0,1.51-1.1L64,62.67l4.71,9.55a2,2,0,0,0,1.51,1.1l10.54,1.53Z"
     id="path1"
     style="fill:#ffaaaa" />
  <path
     d="M111.72,21A2,2,0,0,0,110,20H74a2,2,0,0,0-1.71,1L64.73,33.45,55.62,20.83A2,2,0,0,0,54,20H18a2,2,0,0,0-1.75,3l19.39,34.9a36,36,0,1,0,56.72,0L111.75,23A2,2,0,0,0,111.72,21ZM21.4,24H53l9.5,13.16L58,44.5A36,36,0,0,0,38.44,54.68ZM64,112A32,32,0,1,1,96,80,32,32,0,0,1,64,112ZM89.56,54.68A35.9,35.9,0,0,0,64,44c-.34,0-.67,0-1,0L75.13,24H106.6Z"
     id="path2"
     style="fill:#ffe890;fill-opacity:1" />
</svg>
