<?xml version="1.0" encoding="UTF-8" standalone="no"?>
<svg
   version="1.1"
   x="0px"
   y="0px"
   viewBox="0 0 49 61.25"
   enable-background="new 0 0 49 49"
   xml:space="preserve"
   id="svg3"
   sodipodi:docname="loja.svg"
   inkscape:version="1.4 (e7c3feb1, 2024-10-09)"
   xmlns:inkscape="http://www.inkscape.org/namespaces/inkscape"
   xmlns:sodipodi="http://sodipodi.sourceforge.net/DTD/sodipodi-0.dtd"
   xmlns="http://www.w3.org/2000/svg"
   xmlns:svg="http://www.w3.org/2000/svg"><defs
     id="defs3" /><sodipodi:namedview
     id="namedview3"
     pagecolor="#ffffff"
     bordercolor="#000000"
     borderopacity="0.25"
     inkscape:showpageshadow="2"
     inkscape:pageopacity="0.0"
     inkscape:pagecheckerboard="0"
     inkscape:deskcolor="#d1d1d1"
     inkscape:zoom="6.0981514"
     inkscape:cx="28.287261"
     inkscape:cy="44.275713"
     inkscape:window-width="1472"
     inkscape:window-height="891"
     inkscape:window-x="0"
     inkscape:window-y="65"
     inkscape:window-maximized="0"
     inkscape:current-layer="g2" /><g
     id="g2"
     transform="translate(0,5.9034284)"><path
       d="m 48.5,14.5 v -4.2 c 0,0 0,0 0,0 0,-0.1 0,-0.2 -0.1,-0.3 0,0 0,0 0,-0.1 0,-0.1 -0.1,-0.1 -0.1,-0.2 L 41.7,0.9 C 41.5,0.6 41.2,0.5 40.9,0.5 H 34.3 27.7 21.1 14.5 8.1 C 7.8,0.5 7.5,0.6 7.3,0.9 L 0.7,9.7 c 0,0.1 -0.1,0.1 -0.1,0.2 0,0 0,0 0,0.1 0,0.1 -0.1,0.2 -0.1,0.3 0,0 0,0 0,0 v 4.2 c 0,1.7 0.8,3.3 2.1,4.3 -0.1,0.1 -0.1,0.3 -0.1,0.4 v 27.3 h -1 c -0.6,0 -1,0.4 -1,1 0,0.6 0.4,1 1,1 h 2 5.4 12.3 24.3 2 c 0.6,0 1,-0.4 1,-1 0,-0.6 -0.4,-1 -1,-1 h -1 V 19.1 c 0,-0.1 0,-0.2 -0.1,-0.3 1.3,-1 2.1,-2.6 2.1,-4.3 z m -3,-5.2 H 39 L 36,2.7 35.9,2.6 h 4.5 z m -26.6,5.2 c 0,2 -1.6,3.6 -3.6,3.6 -2,0 -3.6,-1.6 -3.6,-3.6 v -3.2 h 7.2 z m -3.6,-12 h 4.8 l -1,6.8 h -6.8 l 0.1,-0.1 z m 18.4,0 3,6.6 0.1,0.1 H 30 L 29,2.4 h 4.7 z M 27.9,9.3 H 21 l 1,-6.8 h 4.8 z m -7,2 h 7.2 v 3.2 c 0,2 -1.6,3.6 -3.6,3.6 -2,0 -3.6,-1.6 -3.6,-3.6 v -3.2 z m 9.2,0 h 7.2 v 3.2 c 0,2 -1.6,3.6 -3.6,3.6 -2,0 -3.6,-1.6 -3.6,-3.6 z M 8.6,2.5 h 4.5 L 13,2.6 10,9.2 H 3.5 Z m -6.1,8.8 h 7.2 v 3.2 c 0,2 -1.6,3.6 -3.6,3.6 -2,0 -3.6,-1.6 -3.6,-3.6 V 11.3 Z M 9.9,46.5 V 25.7 h 10.3 v 20.8 z m 34.6,0 H 22.2 V 24.7 c 0,-0.6 -0.4,-1 -1,-1 H 8.9 c -0.6,0 -1,0.4 -1,1 V 46.5 H 4.5 V 19.8 c 0.5,0.2 1,0.3 1.6,0.3 1.9,0 3.6,-1 4.6,-2.4 1,1.5 2.7,2.4 4.6,2.4 1.9,0 3.6,-1 4.6,-2.4 1,1.5 2.7,2.4 4.6,2.4 1.9,0 3.6,-1 4.6,-2.4 1,1.5 2.7,2.4 4.6,2.4 1.9,0 3.6,-1 4.6,-2.4 1,1.5 2.7,2.4 4.6,2.4 0.6,0 1.1,-0.1 1.6,-0.2 v 26.6 z m 2,-32 c 0,2 -1.6,3.6 -3.6,3.6 -2,0 -3.6,-1.6 -3.6,-3.6 v -3.2 h 7.2 z"
       id="path1"
       style="fill:#ffa1a1;fill-opacity:1" /><path
       d="M 41.9,26.9 H 26.3 c -0.6,0 -1,0.4 -1,1 v 9.5 c 0,0.6 0.4,1 1,1 h 15.6 c 0.6,0 1,-0.4 1,-1 v -9.5 c 0,-0.6 -0.4,-1 -1,-1 z m -1,9.5 H 27.3 v -7.5 h 13.6 z"
       id="path2"
       style="fill:#ffa1a1;fill-opacity:1" /></g></svg>
